<svg width="669" height="355" viewBox="0 0 669 355" fill="none" xmlns="http://www.w3.org/2000/svg">
<path d="M313.233 309.245C225.429 309.245 171.946 254.709 171.946 176.969C171.946 80.4895 258.403 43.5989 303.126 43.5989C343.007 43.5989 369.917 56.2327 369.917 56.2327L318.413 4.93962C275.29 -6.2202 241.179 5.90822 223.66 13.4464C163.607 38.9245 116.778 117.38 60.4736 157.682C51.5879 164.041 27.2047 177.096 0 177.096V318.636C0.422374 328.234 4.52633 337.3 11.4592 343.95C18.392 350.601 27.6206 354.324 37.2275 354.347H669L623.94 309.287H313.233V309.245Z" fill="white"/>
<path fill-rule="evenodd" clip-rule="evenodd" d="M306.537 281.788C273.732 281.788 229.766 266.122 216.543 235.549C216.543 235.549 346.755 102.684 353.03 96.3667C368.654 80.8693 396.448 80.8693 409.924 96.3667L596.146 281.788H306.537ZM391.014 118.307L452.709 178.992C456.415 182.529 454.478 186.067 451.783 186.109H417.629L391.562 210.745C387.982 215.293 382.002 215.293 382.129 208.597V166.274C382.129 160.715 377.033 159.746 371.811 164.926L346.754 186.151H311.169C306.831 186.277 305.063 182.571 308.347 179.329C308.347 179.329 371.348 119.739 372.948 118.307C377.201 113.886 386.719 113.886 391.014 118.307Z" fill="white"/>
</svg>
