<svg width="2605" height="551" viewBox="0 0 2605 551" fill="none" xmlns="http://www.w3.org/2000/svg">
<g clip-path="url(#clip0_457_4554)">
<path d="M175.857 0H154.165C113.228 0 76.6054 15.2812 45.2499 45.5096C15.2215 75.6962 0 112.271 0 154.19V395.432C0 436.641 15.1801 473.508 45.2499 505.156C75.2367 534.675 111.86 549.622 154.123 549.622H175.815C218.079 549.622 254.411 534.633 283.776 505.115C313.763 474.928 328.984 438.019 328.984 395.474V154.232C328.984 111.645 313.763 75.0699 283.776 45.5513C253.748 15.323 217.457 0 175.857 0ZM175.857 483.445H154.165C128.699 483.445 108.21 475.262 91.4122 458.394C74.1169 441.61 65.6974 420.984 65.6974 395.391V154.148C65.6974 128.554 74.1169 107.929 91.3293 91.2279C109.122 74.5689 130.233 66.0933 154.165 66.0933H175.857C200.7 66.0933 221.231 74.2766 238.609 91.1444C255.904 107.929 264.324 128.554 264.324 154.148V395.391C264.324 420.984 255.904 441.568 238.526 458.478C221.853 475.262 201.323 483.445 175.857 483.445Z" fill="white"/>
<path d="M560.045 91.9377C576.718 73.9009 597.166 65.133 622.549 65.133C647.932 65.133 667.384 73.9009 684.057 91.9377L684.472 92.3135C695.795 102.543 703.385 115.903 707.076 132.145C707.159 133.606 707.491 136.069 708.652 141.581C709.523 145.756 709.979 150.015 709.979 154.19C710.187 162.749 713.297 170.056 719.187 175.984C725.077 181.913 732.915 185.253 741.833 185.253C750.75 185.253 758.34 182.122 764.478 175.984C770.617 169.847 773.686 162.164 773.686 153.188C773.686 111.269 758.464 75.0282 728.519 45.5513C699.154 15.323 663.154 0 621.512 0C579.87 0 543.87 15.323 514.505 45.5513C485.182 75.738 470.333 112.313 470.333 154.148V396.351C470.333 438.228 485.182 474.761 514.546 505.031C543.87 534.592 579.87 549.539 621.512 549.539C663.154 549.539 699.403 534.592 729.514 504.948C758.838 474.761 773.686 438.186 773.686 396.351C773.686 387.374 770.575 379.692 764.478 373.554C758.382 367.417 750.75 364.285 741.833 364.285C732.915 364.285 725.325 367.417 719.187 373.554C713.09 379.692 709.979 387.374 709.979 396.351C709.979 420.066 701.477 440.733 684.182 459.438C667.508 476.222 647.31 484.406 622.507 484.406C597.705 484.406 577.589 476.014 559.838 459.438C543.372 441.568 535.035 420.358 535.035 396.351V154.148C535.035 129.18 543.165 108.847 560.004 91.896L560.045 91.9377Z" fill="white"/>
<path d="M1182.14 49.4764C1168.49 35.74 1152.07 24.634 1133.4 16.4089C1114.62 8.14199 1094.38 3.9668 1073.22 3.9668C1052.07 3.9668 1031.83 8.14199 1013.04 16.4089C994.336 24.634 977.953 35.74 964.308 49.4764C950.662 63.2128 939.63 79.7048 931.459 98.5349C923.247 117.448 919.099 137.823 919.099 159.117V394.389C919.099 415.682 923.247 435.932 931.459 454.512C939.63 473.008 950.662 489.5 964.266 503.487C977.912 517.599 994.336 528.914 1013.08 537.139C1031.87 545.406 1052.11 549.581 1073.26 549.581C1107.36 549.581 1138.26 539.477 1165.22 519.561C1192.17 499.645 1210.67 472.799 1220.25 439.898C1222.7 431.757 1221.87 423.532 1217.89 415.432C1213.78 407.249 1207.56 401.821 1199.31 399.357C1191.3 396.936 1183.17 397.687 1175.25 401.612C1166.96 405.036 1161.48 411.716 1158.99 421.486C1152.86 440.525 1141.86 455.931 1126.31 467.288C1110.72 478.686 1092.88 484.448 1073.26 484.448C1047.76 484.448 1026.77 475.93 1009.1 458.436C991.433 440.984 982.847 420.025 982.847 394.389V334.141H1073.26C1094.42 334.141 1114.66 329.966 1133.45 321.699C1152.15 313.474 1168.58 302.326 1182.18 288.631C1195.82 274.895 1206.9 258.403 1215.03 239.573C1223.24 220.659 1227.39 200.284 1227.39 178.991V159.117C1227.39 137.823 1223.24 117.448 1215.03 98.5349C1206.86 79.7048 1195.82 63.2128 1182.18 49.4764H1182.14ZM1162.64 159.117V178.991C1162.64 204.626 1154.18 225.795 1136.8 243.581C1119.47 261.367 1098.65 270.01 1073.22 270.01H982.806V159.117C982.806 133.481 991.391 112.355 1009.1 94.5684C1026.77 76.7821 1047.76 68.0977 1073.22 68.0977C1098.69 68.0977 1119.47 76.7404 1136.8 94.5267C1154.18 112.355 1162.64 133.481 1162.64 159.117Z" fill="white"/>
<path d="M1633.72 45.4261C1602.41 15.2812 1566.12 0 1525.89 0C1499.3 0 1472.72 7.26483 1446.96 21.6275L1438.79 26.8882L1434.89 18.4961C1429.25 6.38804 1419.13 0 1405.57 0C1397.56 0 1389.64 3.13139 1381.97 9.31068L1381.47 9.76995C1375.04 16.2415 1371.76 24.0909 1371.76 33.0675V551.042L1379.27 549.455C1396.32 545.865 1410.42 537.848 1421.12 525.615C1431.99 513.256 1437.46 498.476 1437.46 481.775V154.19C1437.46 129.222 1445.88 108.597 1463.26 91.1027C1479.93 74.3184 1500.13 66.135 1524.93 66.135C1549.74 66.135 1570.89 74.3184 1587.69 91.1862C1604.98 107.97 1613.4 128.596 1613.4 154.19V551.042L1620.91 549.455C1637.95 545.865 1652.06 537.848 1662.76 525.615C1673.62 513.256 1679.1 498.476 1679.1 481.775V154.19C1679.1 112.313 1663.88 75.738 1633.89 45.5096L1633.81 45.4261H1633.72Z" fill="white"/>
<path d="M2086.43 49.4764C2072.78 35.74 2056.36 24.634 2037.7 16.4089C2018.91 8.14199 1998.67 3.9668 1977.52 3.9668C1956.36 3.9668 1936.12 8.14199 1917.33 16.4089C1898.63 24.634 1882.25 35.74 1868.6 49.4764C1854.96 63.2128 1843.92 79.7048 1835.75 98.5349C1827.54 117.448 1823.39 137.823 1823.39 159.117V394.389C1823.39 415.682 1827.54 435.932 1835.75 454.512C1843.92 473.008 1854.95 489.5 1868.56 503.487C1882.2 517.599 1898.63 528.914 1917.38 537.139C1936.16 545.406 1956.4 549.581 1977.56 549.581C2011.65 549.581 2042.55 539.477 2069.51 519.561C2096.47 499.645 2114.97 472.799 2124.55 439.898C2126.99 431.757 2126.16 423.532 2122.18 415.432C2118.08 407.249 2111.85 401.821 2103.6 399.357C2095.6 396.936 2087.47 397.687 2079.55 401.612C2071.25 405.036 2065.78 411.716 2063.29 421.486C2057.15 440.525 2046.16 455.931 2030.6 467.288C2015.01 478.686 1997.17 484.448 1977.56 484.448C1952.05 484.448 1931.06 475.93 1913.39 458.436C1895.73 440.984 1887.14 420.025 1887.14 394.389V334.141H1977.56C1998.71 334.141 2018.95 329.966 2037.74 321.699C2056.44 313.474 2072.87 302.326 2086.47 288.631C2100.12 274.895 2111.19 258.403 2119.32 239.573C2127.53 220.659 2131.68 200.284 2131.68 178.991V159.117C2131.68 137.823 2127.53 117.448 2119.32 98.5349C2111.15 79.7048 2100.12 63.2128 2086.47 49.4764H2086.43ZM2066.94 159.117V178.991C2066.94 204.626 2058.48 225.795 2041.1 243.581C2023.76 261.367 2002.94 270.01 1977.52 270.01H1887.1V159.117C1887.1 133.481 1895.68 112.355 1913.39 94.5684C1931.06 76.7821 1952.05 68.0977 1977.52 68.0977C2002.98 68.0977 2023.76 76.7404 2041.1 94.5267C2058.48 112.355 2066.94 133.481 2066.94 159.117Z" fill="white"/>
<path d="M2559.79 45.5096C2529.76 15.3229 2493.47 0 2451.83 0H2430.14C2389.2 0 2352.58 15.2812 2321.22 45.5096C2291.24 75.6962 2276.02 112.271 2276.02 154.19V395.432C2276.02 436.641 2291.2 473.508 2321.27 505.156C2351.25 534.675 2387.87 549.622 2430.14 549.622H2451.83C2494.09 549.622 2530.43 534.633 2559.79 505.115C2589.78 474.928 2605 438.019 2605 395.474V154.232C2605 111.645 2589.78 75.0699 2559.79 45.5513V45.5096ZM2451.83 483.445H2430.14C2404.67 483.445 2384.18 475.262 2367.39 458.394C2350.09 441.61 2341.67 420.984 2341.67 395.391V154.148C2341.67 128.554 2350.09 107.929 2367.3 91.2279C2385.1 74.5689 2406.21 66.0933 2430.14 66.0933H2451.83C2476.67 66.0933 2497.2 74.2766 2514.58 91.1444C2531.88 107.929 2540.3 128.554 2540.3 154.148V395.391C2540.3 420.984 2531.88 441.568 2514.5 458.478C2497.83 475.262 2477.3 483.445 2451.83 483.445Z" fill="white"/>
</g>
<defs>
<clipPath id="clip0_457_4554">
<rect width="2605" height="551" fill="white"/>
</clipPath>
</defs>
</svg>
