<svg width="750" height="232" viewBox="0 0 750 232" fill="none" xmlns="http://www.w3.org/2000/svg">
<path d="M701.896 181.372C697.353 180.841 694.706 180.324 692.031 180.244C661.153 179.46 640.169 161.111 638.956 131.541C637.828 103.923 637.939 76.2125 638.914 48.5947C639.973 18.4675 666.657 0.502645 692.351 0.608867C715.314 0.715089 732.774 8.00459 743.837 26.952C747.404 33.0465 749.341 40.7609 749.494 47.7848C750.107 76.3187 750.247 104.879 749.439 133.4C749.202 141.473 746.833 150.395 742.569 157.313C722.964 189.153 696.726 215.045 658.255 224.578C609.89 236.555 562.417 234.63 521.2 203.427C490.142 179.912 473.128 148.842 472.585 110.469C472.32 91.4421 472.668 72.4151 472.432 53.388C472.264 39.5659 467.819 27.6557 454.039 20.6849C430.337 8.70831 403.04 23.6325 402.776 49.1126C402.4 84.2854 402.65 119.472 402.636 154.644C402.636 162.359 401.759 169.874 394.778 174.999C392.576 176.619 389.552 177.23 386.905 178.292C386.264 175.836 385.066 173.366 385.066 170.91C384.954 118.914 384.982 66.9181 384.996 14.9223C384.996 13.1564 384.55 11.0585 385.358 9.69087C387.072 6.84942 389.037 2.93248 391.74 2.17564C394.401 1.43209 399.209 3.18476 401.104 5.37559C404.601 9.41203 407.318 9.30581 411.735 7.07514C447.364 -10.9428 487.94 11.6029 488.971 50.135C489.487 69.5869 489.431 89.0787 489.055 108.544C488.01 161.522 533.393 212.071 596.081 214.633C615.519 215.43 635.069 215.908 654.102 210.185C670.336 205.312 684.66 197.425 697.353 186.763C698.649 185.674 699.569 184.161 701.91 181.359L701.896 181.372ZM733.275 90.5791C733.275 90.5791 733.247 90.5791 733.233 90.5791C733.233 76.4382 733.303 62.2974 733.219 48.1566C733.15 35.7684 727.562 25.9827 715.76 20.884C700.67 14.3646 685.119 14.0991 670.531 22.6633C661.46 27.9876 656.415 36.0871 656.374 46.3906C656.234 75.7743 656.179 105.171 656.402 134.555C656.471 144.155 661.195 151.763 669.249 157.711C677.985 164.164 687.99 164.696 698.315 164.443C719.787 163.899 732.983 151.378 733.233 131.036C733.401 117.56 733.261 104.083 733.261 90.6056L733.275 90.5791Z" fill="white"/>
<path d="M0.196402 90.498C0.196402 76.3439 0.0709966 62.203 0.210336 48.0489C0.475081 22.5158 22.017 1.74934 48.798 1.0589C62.314 0.713676 75.6209 0.554342 87.5065 8.65378C102.388 18.7847 110.651 32.3015 110.818 49.536C111.097 78.694 111.668 107.918 109.926 136.983C108.394 162.41 86.573 179.326 59.7919 180.349C36.4525 181.225 17.5302 174.639 6.13227 154.391C2.76025 148.389 0.851298 141.073 0.461147 134.248C-0.388824 119.696 0.196402 105.077 0.196402 90.4847V90.498ZM94.0694 90.6042C94.2645 90.6042 94.4735 90.6042 94.6686 90.6042C94.6686 76.9015 94.6965 63.1989 94.6268 49.4962C94.6268 47.5311 94.153 45.5394 93.8047 43.5876C91.1851 28.9821 78.9372 18.1607 63.4147 17.0188C58.5657 16.6603 53.6749 16.7134 48.812 16.9126C30.9626 17.6827 17.1401 30.5488 16.9032 47.6639C16.4991 75.9455 16.5409 104.24 16.9032 132.535C17.0983 148.27 28.2733 160.937 43.8097 163.698C48.9931 164.628 54.4413 164.508 59.7501 164.349C78.9232 163.791 92.1465 153.169 93.7908 134.965C95.1145 120.28 94.0555 105.396 94.0555 90.6042H94.0694Z" fill="white"/>
<path d="M361.935 55.9385C363.928 82.9455 339.641 108.85 306.631 107.217C298.995 106.846 291.304 107.337 283.654 107.151C277.091 106.992 274.346 109.873 274.569 115.994C274.778 121.517 274.458 127.068 274.695 132.578C275.377 147.967 286.455 160.488 302.089 163.754C318.447 167.18 334.639 160.076 342.01 146.227C343.055 144.249 343.542 141.647 345.187 140.412C347.653 138.54 351.638 135.924 353.631 136.707C356.222 137.743 359.58 142.403 358.925 144.435C356.807 151.047 354.23 158.138 349.631 163.289C335.67 178.957 317.082 183.75 296.696 178.346C277.161 173.168 264.565 160.328 259.911 141.195C258.824 136.707 258.28 131.994 258.253 127.386C258.099 103.274 258.002 79.1481 258.239 55.0356C258.462 32.5032 267.965 14.7774 290.468 5.89458C323.798 -7.26369 364.248 14.6579 361.963 55.9385H361.935ZM274.653 65.857H274.611C274.611 71.593 274.709 77.3423 274.583 83.0783C274.458 88.8408 277.063 91.6292 283.306 91.523C293.492 91.3503 303.691 91.5761 313.891 91.4035C321.875 91.2707 328.591 88.2168 334.443 82.9721C344.727 73.7573 346.566 62.1525 345.758 49.5652C344.546 30.724 329.162 16.7558 309.753 17.0346C291.039 17.3002 275.503 31.8128 274.681 49.9635C274.444 55.2481 274.639 60.5592 274.639 65.857H274.653Z" fill="white"/>
<path d="M618.809 54.7432C618.712 86.424 597.198 106.951 563.826 107.164C555.939 107.217 548.038 107.31 540.152 107.217C534.146 107.151 531.039 109.62 531.109 115.516C531.234 128.103 530.37 140.783 539.107 151.737C554.295 170.764 586.524 168.507 598.382 147.409C599.803 144.873 600.388 141.593 602.465 139.814C604.736 137.875 609 135.698 611.076 136.561C613.653 137.623 615.897 141.527 616.357 144.488C616.789 147.223 615.005 150.463 613.626 153.224C603.802 172.889 580.212 183.737 557.123 179.355C534.272 175.027 516.715 156.146 515.949 134.251C515.419 119.008 515.907 103.738 515.684 88.4688C515.517 76.9835 514.639 65.4982 514.667 54.0129C514.695 37.429 520.881 23.2218 534.745 12.7589C551.229 0.317627 569.706 -1.40848 588.447 6.69096C609.71 15.8792 618.851 32.9013 618.823 54.7299L618.809 54.7432ZM531.109 66.6534H531.067C531.067 72.4027 531.178 78.1519 531.039 83.9012C530.886 90.0887 534.021 92.8372 540.375 92.5982C549.864 92.2264 559.367 91.7085 568.87 91.5625C579.961 91.3899 588.322 86.5966 595.08 78.5901C601.977 70.3977 602.604 60.7979 602.228 50.9192C601.489 31.2416 586.858 17.1937 566.877 17.0343C547.871 16.875 532.307 31.1752 531.165 50.0827C530.83 55.593 531.109 61.1298 531.109 66.6667V66.6534Z" fill="white"/>
<path d="M132.709 90.1798C132.709 77.1278 132.486 64.0624 132.75 51.0104C133.405 19.7545 156.522 -0.613594 189.071 1.12579C212.829 2.38718 234.719 24.3885 234.803 47.0536C234.817 51.7805 233.075 55.5248 227.654 56.0692C222.541 56.5871 219.963 53.4137 219.169 49.0453C217.65 40.6537 215.42 32.7535 208.774 26.3668C189.893 8.24268 158.263 15.7446 150.878 40.3351C149.875 43.6943 149.332 47.3059 149.318 50.7979C149.192 77.3535 148.997 103.909 149.318 130.465C149.583 151.855 164.785 165.359 186.703 164.456C201.849 163.818 214.027 154.019 217.789 139.321C218.5 136.533 218.152 133.147 219.726 130.996C221.579 128.46 224.965 125.525 227.738 125.472C229.954 125.432 232.699 129.19 234.357 131.753C235.276 133.173 234.649 135.63 234.385 137.581C230.887 163.739 209.192 181.106 181.31 180.137C154.738 179.221 134.06 159.264 132.89 132.655C132.277 118.515 132.778 104.334 132.778 90.1798C132.75 90.1798 132.722 90.1798 132.695 90.1798H132.709Z" fill="white"/>
</svg>
